# xmcd
#
# Track frame offsets:
#	150
#	13637
#	31089
#	44666
#	62281
#	74998
#	89031
#	99988
#	112869
#	124698
#	139417
#	154686
#	157836
#
# Disc length: 2335 seconds
#
# Revision: 1
# Processed by: cddbd v1.5.2PL0 Copyright (c) Steve Scherf et al.
# Submitted via: audiograbber 1.83.01
#
DISCID=a9091d0d
DTITLE=Bob Wayne - 13 Truckin' Songs
DYEAR=2006
DGENRE=Country
TTITLE0=Mack
TTITLE1=Mornin' Time
TTITLE2=Devil's Son
TTITLE3=Showdown
TTITLE4=Chatterbox
TTITLE5=Left Behind
TTITLE6=Long Way Down
TTITLE7=The Laugh
TTITLE8=100k
TTITLE9=Movin' Out
TTITLE10=1985
TTITLE11=One For The Ladies
TTITLE12=Neath The Stone
EXTD=
EXTT0=
EXTT1=
EXTT2=
EXTT3=
EXTT4=
EXTT5=
EXTT6=
EXTT7=
EXTT8=
EXTT9=
EXTT10=
EXTT11=
EXTT12=
PLAYORDER=
